<?xml version="1.0" encoding="UTF-8" standalone="no"?>
<!-- Generator: Adobe Illustrator 19.0.0, SVG Export Plug-In . SVG Version: 6.00 Build 0)  -->

<svg
   xmlns:dc="http://purl.org/dc/elements/1.1/"
   xmlns:cc="http://creativecommons.org/ns#"
   xmlns:rdf="http://www.w3.org/1999/02/22-rdf-syntax-ns#"
   xmlns:svg="http://www.w3.org/2000/svg"
   xmlns="http://www.w3.org/2000/svg"
   xmlns:sodipodi="http://sodipodi.sourceforge.net/DTD/sodipodi-0.dtd"
   xmlns:inkscape="http://www.inkscape.org/namespaces/inkscape"
   version="1.1"
   id="Capa_1"
   x="0px"
   y="0px"
   viewBox="0 0 2086.6245 470.00005"
   xml:space="preserve"
   width="2273.0889"
   height="512.00006"
   inkscape:version="0.91 r13725"
   sodipodi:docname="atom.svg"><metadata
     id="metadata31"><rdf:RDF><cc:Work
         rdf:about=""><dc:format>image/svg+xml</dc:format><dc:type
           rdf:resource="http://purl.org/dc/dcmitype/StillImage" /><dc:title></dc:title></cc:Work></rdf:RDF></metadata><defs
     id="defs29" /><sodipodi:namedview
     pagecolor="#ffffff"
     bordercolor="#666666"
     borderopacity="1"
     objecttolerance="10"
     gridtolerance="10"
     guidetolerance="10"
     inkscape:pageopacity="0"
     inkscape:pageshadow="2"
     inkscape:window-width="1536"
     inkscape:window-height="801"
     id="namedview27"
     showgrid="false"
     fit-margin-top="0"
     fit-margin-left="0"
     fit-margin-right="0"
     fit-margin-bottom="0"
     inkscape:zoom="0.32593203"
     inkscape:cx="945.70847"
     inkscape:cy="49.663624"
     inkscape:window-x="-8"
     inkscape:window-y="-8"
     inkscape:window-maximized="1"
     inkscape:current-layer="Capa_1" /><g
     id="g3"
     transform="translate(-25.653089,-3.8334539e-5)"><g
       id="g4183"
       transform="matrix(0,1.0000001,0.99999989,0,-3.6401354e-5,3.8334539e-5)"><path
         inkscape:connector-curvature="0"
         id="path5"
         d="m 462.5,242.5 c -4.142,0 -7.5,-3.357 -7.5,-7.5 0,-38.635 -88.401,-80 -220,-80 -131.599,0 -220,41.365 -220,80 0,4.143 -3.358,7.5 -7.5,7.5 C 3.358,242.5 0,239.142 0,235 0,208.307 25.372,183.848 71.441,166.128 115.249,149.279 173.335,140 235,140 c 61.665,0 119.751,9.279 163.559,26.128 C 444.628,183.848 470,208.307 470,235 c 0,4.142 -3.358,7.5 -7.5,7.5 z"
         style="fill:#082947" /><path
         inkscape:connector-curvature="0"
         id="path7"
         d="m 121.243,439.522 c -1.272,0 -2.562,-0.324 -3.743,-1.006 -23.118,-13.348 -31.614,-47.55 -23.924,-96.306 7.312,-46.363 28.319,-101.307 59.152,-154.711 30.833,-53.403 67.912,-99.068 104.407,-128.582 38.38,-31.037 72.247,-40.78 95.365,-27.434 3.587,2.071 4.816,6.658 2.745,10.245 -2.072,3.587 -6.658,4.813 -10.245,2.745 C 311.544,25.154 231.516,81.033 165.718,195 99.919,308.968 91.542,406.209 125,425.526 c 3.587,2.071 4.816,6.658 2.745,10.245 -1.389,2.407 -3.91,3.751 -6.502,3.751 z"
         style="fill:#274b6d" /><path
         inkscape:connector-curvature="0"
         id="path9"
         d="m 329.625,444.347 c -20.431,0.002 -45.329,-11.299 -72.49,-33.264 C 220.64,381.568 183.561,335.904 152.728,282.5 121.895,229.096 100.888,174.152 93.576,127.79 85.887,79.033 94.383,44.831 117.5,31.484 c 3.587,-2.07 8.174,-0.843 10.245,2.745 2.071,3.587 0.842,8.174 -2.745,10.245 -17.112,9.88 -23.166,39.396 -16.607,80.979 7.032,44.588 27.391,97.698 57.325,149.547 57.217,99.103 125.197,154.279 163.955,154.285 5.813,10e-4 10.963,-1.239 15.327,-3.759 3.587,-2.07 8.174,-0.843 10.245,2.745 2.071,3.587 0.842,8.174 -2.745,10.245 -6.757,3.902 -14.437,5.831 -22.875,5.831 z"
         style="fill:#6da8d6" /><path
         inkscape:connector-curvature="0"
         id="path11"
         d="M 235,330 C 173.334,330 115.248,320.721 71.441,303.872 25.372,286.153 0,261.693 0,235 c 0,-4.143 3.358,-7.5 7.5,-7.5 4.142,0 7.5,3.357 7.5,7.5 0,38.635 88.401,80 220,80 131.599,0 220,-41.365 220,-80 0,-4.143 3.358,-7.5 7.5,-7.5 4.142,0 7.5,3.357 7.5,7.5 0,26.693 -25.372,51.153 -71.441,68.872 C 354.752,320.721 296.666,330 235,330 Z"
         style="fill:#082947" /><circle
         id="circle13"
         r="20"
         cy="185.05701"
         cx="49.396999"
         style="fill:#95f4f1;fill-opacity:1" /><circle
         id="circle15"
         r="19.997"
         cy="421.74899"
         cx="284.94901"
         style="fill:#95f4f1;fill-opacity:1" /><circle
         id="circle19"
         r="45"
         cy="235"
         cx="235"
         style="fill:#e7cb54;fill-opacity:1" /><path
         inkscape:connector-curvature="0"
         id="path21"
         d="m 140.375,444.347 c -8.44,0 -16.116,-1.928 -22.875,-5.83 -3.587,-2.071 -4.816,-6.658 -2.745,-10.245 2.071,-3.588 6.658,-4.816 10.245,-2.745 33.458,19.32 113.483,-36.56 179.282,-150.526 29.935,-51.849 50.293,-104.959 57.325,-149.547 6.558,-41.583 0.505,-71.099 -16.607,-80.979 -3.587,-2.071 -4.816,-6.658 -2.745,-10.245 2.071,-3.588 6.658,-4.816 10.245,-2.745 23.118,13.347 31.614,47.549 23.924,96.306 -7.312,46.362 -28.319,101.306 -59.152,154.71 -30.833,53.404 -67.912,99.068 -104.407,128.583 -27.159,21.962 -52.06,33.263 -72.49,33.263 z"
         style="fill:#274b6d" /><path
         inkscape:connector-curvature="0"
         id="path23"
         d="m 348.757,439.522 c -2.592,0 -5.113,-1.345 -6.502,-3.751 -2.071,-3.587 -0.842,-8.174 2.745,-10.245 C 378.458,406.209 370.081,308.967 304.282,195 238.483,81.033 158.458,25.158 125,44.474 c -3.587,2.069 -8.174,0.843 -10.245,-2.745 -2.071,-3.587 -0.842,-8.174 2.745,-10.245 23.119,-13.348 56.986,-3.604 95.365,27.434 36.496,29.514 73.575,75.179 104.407,128.582 30.833,53.404 51.84,108.348 59.152,154.711 7.689,48.756 -0.807,82.958 -23.924,96.306 -1.181,0.681 -2.471,1.005 -3.743,1.005 z"
         style="fill:#6da8d6" /><circle
         id="circle25"
         r="19.997"
         cy="98.542999"
         cx="371.65399"
         style="fill:#95f4f1;fill-opacity:1" /></g></g><flowRoot
     xml:space="preserve"
     id="flowRoot4159"
     style="font-style:normal;font-variant:normal;font-weight:normal;font-stretch:normal;font-size:250px;line-height:125%;font-family:'Exo 2';-inkscape-font-specification:'Exo 2, ';letter-spacing:0px;word-spacing:0px;fill:#19253d;fill-opacity:1;stroke:none;stroke-width:1px;stroke-linecap:butt;stroke-linejoin:miter;stroke-opacity:1"
     transform="matrix(0.91796878,0,0,0.91796878,-18.653437,-38.864098)"><flowRegion
       id="flowRegion4161"><rect
         id="rect4163"
         width="1885.288"
         height="425.22034"
         x="542.37286"
         y="52.067795"
         style="font-style:normal;font-variant:normal;font-weight:normal;font-stretch:normal;font-size:250px;font-family:'Exo 2';-inkscape-font-specification:'Exo 2, ';fill:#19253d;fill-opacity:1" /></flowRegion><flowPara
       id="flowPara4165">TECH CONNECT</flowPara></flowRoot><flowRoot
     xml:space="preserve"
     id="flowRoot4167"
     style="font-style:normal;font-weight:normal;font-size:40px;line-height:125%;font-family:sans-serif;letter-spacing:0px;word-spacing:0px;fill:#000000;fill-opacity:1;stroke:none;stroke-width:1px;stroke-linecap:butt;stroke-linejoin:miter;stroke-opacity:1"
     transform="matrix(0.91796878,0,0,0.91796878,-25.653089,-3.8334539e-5)"><flowRegion
       id="flowRegion4169"><rect
         id="rect4171"
         width="8.6779661"
         height="73.762711"
         x="1082.5763"
         y="-28.20339" /></flowRegion><flowPara
       id="flowPara4173"></flowPara></flowRoot><flowRoot
     xml:space="preserve"
     id="flowRoot4175"
     style="font-style:normal;font-weight:normal;font-size:80px;line-height:125%;font-family:sans-serif;letter-spacing:0px;word-spacing:0px;fill:#e7cb54;fill-opacity:1;stroke:none;stroke-width:1px;stroke-linecap:butt;stroke-linejoin:miter;stroke-opacity:1"
     transform="matrix(0.91796878,0,0,0.91796878,-71.174877,-60.570719)"><flowRegion
       id="flowRegion4177"><rect
         id="rect4179"
         width="1874.4407"
         height="141.01695"
         x="605.28815"
         y="397.01694"
         style="font-size:80px;fill:#e7cb54;fill-opacity:1" /></flowRegion><flowPara
       id="flowPara4181">WORKING WITHIN THE KINGDOM OF GOD</flowPara></flowRoot></svg>